<svg xmlns="http://www.w3.org/2000/svg" viewBox="0 0 290 240" width="290" height="240" data-copyright="© 2026 Sensory App House"><!--SAH-COPYRIGHT © 2026 Sensory App House. All rights reserved.--><metadata id="sah-copyright"><rdf:RDF xmlns:rdf="http://www.w3.org/1999/02/22-rdf-syntax-ns#" xmlns:dc="http://purl.org/dc/elements/1.1/" xmlns:cc="http://creativecommons.org/ns#"><cc:Work rdf:about=""><dc:rights><cc:Agent><dc:title>© 2026 Sensory App House. All rights reserved.</dc:title></cc:Agent></dc:rights><dc:creator><cc:Agent><dc:title>Sensory App House (PiCom)</dc:title></cc:Agent></dc:creator><dc:date>2026</dc:date></cc:Work></rdf:RDF></metadata>
  <!-- assisted-living: building + senior with walker FULL BODY + caregiver nearby -->
  <!-- building -->
  <rect x="14" y="40" width="120" height="180" fill="#eed5b6" stroke="#000000" stroke-width="3" stroke-linejoin="round"/>
  <!-- roof -->
  <path d="M10 44 L74 14 L138 44 Z" fill="#9d7246" stroke="#000000" stroke-width="3" stroke-linejoin="round"/>
  <!-- cross/heart sign -->
  <rect x="60" y="48" width="28" height="22" fill="#ffffff" stroke="#000000" stroke-width="2.5"/>
  <path d="M68 56 L80 56 M74 50 L74 68" stroke="#d01424" stroke-width="3.5" stroke-linecap="round"/>
  <!-- door -->
  <rect x="60" y="160" width="28" height="60" fill="#5e1f0a" stroke="#000000" stroke-width="2.5" stroke-linejoin="round"/>
  <circle cx="82" cy="190" r="2" fill="#f2e40d" stroke="#000000" stroke-width="1.5"/>
  <!-- windows -->
  <rect x="24" y="86" width="24" height="22" fill="#90a7d6" stroke="#000000" stroke-width="2"/>
  <line x1="36" y1="86" x2="36" y2="108" stroke="#000000" stroke-width="1.5"/>
  <line x1="24" y1="97" x2="48" y2="97" stroke="#000000" stroke-width="1.5"/>
  <rect x="100" y="86" width="24" height="22" fill="#90a7d6" stroke="#000000" stroke-width="2"/>
  <line x1="112" y1="86" x2="112" y2="108" stroke="#000000" stroke-width="1.5"/>
  <line x1="100" y1="97" x2="124" y2="97" stroke="#000000" stroke-width="1.5"/>
  <rect x="24" y="122" width="24" height="22" fill="#90a7d6" stroke="#000000" stroke-width="2"/>
  <line x1="36" y1="122" x2="36" y2="144" stroke="#000000" stroke-width="1.5"/>
  <line x1="24" y1="133" x2="48" y2="133" stroke="#000000" stroke-width="1.5"/>
  <rect x="100" y="122" width="24" height="22" fill="#90a7d6" stroke="#000000" stroke-width="2"/>
  <line x1="112" y1="122" x2="112" y2="144" stroke="#000000" stroke-width="1.5"/>
  <line x1="100" y1="133" x2="124" y2="133" stroke="#000000" stroke-width="1.5"/>
  <!-- senior with walker FULL BODY (front-right) -->
  <!-- legs -->
  <rect x="172" y="180" width="9" height="36" fill="#7d5e23" stroke="#000000" stroke-width="2" stroke-linejoin="round"/>
  <rect x="184" y="180" width="9" height="36" fill="#7d5e23" stroke="#000000" stroke-width="2" stroke-linejoin="round"/>
  <ellipse cx="176" cy="218" rx="7" ry="3.5" fill="#4d4d4d" stroke="#000000" stroke-width="2"/>
  <ellipse cx="188" cy="218" rx="7" ry="3.5" fill="#4d4d4d" stroke="#000000" stroke-width="2"/>
  <!-- torso -->
  <path d="M164 140 Q164 134 170 134 L195 134 Q201 134 201 140 L201 182 L164 182 Z" fill="#7c3fac" stroke="#000000" stroke-width="2.5" stroke-linejoin="round"/>
  <!-- arms forward gripping walker -->
  <path d="M164 142 L154 174 L162 178 L172 152 Z" fill="#7c3fac" stroke="#000000" stroke-width="2.5" stroke-linejoin="round"/>
  <path d="M201 142 L211 174 L203 178 L194 152 Z" fill="#7c3fac" stroke="#000000" stroke-width="2.5" stroke-linejoin="round"/>
  <circle cx="156" cy="178" r="5" fill="#e6b98a" stroke="#000000" stroke-width="2"/>
  <circle cx="210" cy="178" r="5" fill="#e6b98a" stroke="#000000" stroke-width="2"/>
  <!-- neck + head -->
  <rect x="178" y="126" width="9" height="9" fill="#e6b98a" stroke="#000000" stroke-width="2"/>
  <circle cx="182" cy="114" r="16" fill="#e6b98a" stroke="#000000" stroke-width="2.5"/>
  <!-- white hair -->
  <path d="M167 112 Q168 98 182 96 Q196 98 197 112 Q193 104 182 104 Q171 104 167 112 Z" fill="#efefef" stroke="#000000" stroke-width="2" stroke-linejoin="round"/>
  <circle cx="176" cy="115" r="1.5" fill="#000000"/>
  <circle cx="188" cy="115" r="1.5" fill="#000000"/>
  <path d="M178 121 Q182 124 186 121" fill="none" stroke="#000000" stroke-width="1.5" stroke-linecap="round"/>
  <!-- walker -->
  <rect x="148" y="170" width="72" height="6" rx="2" fill="#b8b8b8" stroke="#000000" stroke-width="2"/>
  <line x1="154" y1="176" x2="154" y2="220" stroke="#000000" stroke-width="3" stroke-linecap="round"/>
  <line x1="216" y1="176" x2="216" y2="220" stroke="#000000" stroke-width="3" stroke-linecap="round"/>
  <line x1="170" y1="176" x2="170" y2="220" stroke="#000000" stroke-width="3" stroke-linecap="round"/>
  <line x1="200" y1="176" x2="200" y2="220" stroke="#000000" stroke-width="3" stroke-linecap="round"/>
  <circle cx="154" cy="222" r="5" fill="#4d4d4d" stroke="#000000" stroke-width="2"/>
  <circle cx="216" cy="222" r="5" fill="#4d4d4d" stroke="#000000" stroke-width="2"/>
  <!-- caregiver behind in window area: small full body figure -->
  <rect x="244" y="178" width="7" height="32" fill="#1d0e82" stroke="#000000" stroke-width="2" stroke-linejoin="round"/>
  <rect x="254" y="178" width="7" height="32" fill="#1d0e82" stroke="#000000" stroke-width="2" stroke-linejoin="round"/>
  <ellipse cx="247" cy="212" rx="5" ry="2.5" fill="#000000" stroke="#000000" stroke-width="1.5"/>
  <ellipse cx="258" cy="212" rx="5" ry="2.5" fill="#000000" stroke="#000000" stroke-width="1.5"/>
  <path d="M240 146 Q240 142 244 142 L264 142 Q268 142 268 146 L268 180 L240 180 Z" fill="#3aa6a0" stroke="#000000" stroke-width="2.5" stroke-linejoin="round"/>
  <!-- cross on uniform -->
  <path d="M254 152 L254 164 M248 158 L260 158" stroke="#ffffff" stroke-width="2.5" stroke-linecap="round"/>
  <path d="M240 148 L232 168 L238 172 L246 156 Z" fill="#3aa6a0" stroke="#000000" stroke-width="2.5" stroke-linejoin="round"/>
  <path d="M268 148 L276 168 L270 172 L262 156 Z" fill="#3aa6a0" stroke="#000000" stroke-width="2.5" stroke-linejoin="round"/>
  <circle cx="234" cy="172" r="4" fill="#e6b98a" stroke="#000000" stroke-width="2"/>
  <circle cx="274" cy="172" r="4" fill="#e6b98a" stroke="#000000" stroke-width="2"/>
  <rect x="251" y="134" width="7" height="8" fill="#e6b98a" stroke="#000000" stroke-width="2"/>
  <circle cx="254" cy="124" r="13" fill="#e6b98a" stroke="#000000" stroke-width="2.5"/>
  <path d="M242 122 Q243 110 254 108 Q265 110 266 122" fill="#5e1f0a" stroke="#000000" stroke-width="2" stroke-linejoin="round"/>
  <circle cx="250" cy="125" r="1.3" fill="#000000"/>
  <circle cx="258" cy="125" r="1.3" fill="#000000"/>
  <path d="M251 130 Q254 132 257 130" fill="none" stroke="#000000" stroke-width="1.5" stroke-linecap="round"/>
</svg>
