<svg 
   width="128"
   height="128"
   viewBox="0 0 128 128"
   version="1.1"
   id="svg1160"
   sodipodi:docname="feuer.svg"
   inkscape:version="1.1.2 (0a00cf5339, 2022-02-04, custom)"
   xmlns:inkscape="http://www.inkscape.org/namespaces/inkscape"
   xmlns:sodipodi="http://sodipodi.sourceforge.net/DTD/sodipodi-0.dtd"
   xmlns="http://www.w3.org/2000/svg"
   xmlns:svg="http://www.w3.org/2000/svg" data-copyright="© 2026 Sensory App House"><!--SAH-COPYRIGHT © 2026 Sensory App House. All rights reserved.--><metadata id="sah-copyright"><rdf:RDF xmlns:rdf="http://www.w3.org/1999/02/22-rdf-syntax-ns#" xmlns:dc="http://purl.org/dc/elements/1.1/" xmlns:cc="http://creativecommons.org/ns#"><cc:Work rdf:about=""><dc:rights><cc:Agent><dc:title>© 2026 Sensory App House. All rights reserved.</dc:title></cc:Agent></dc:rights><dc:creator><cc:Agent><dc:title>Sensory App House (PiCom)</dc:title></cc:Agent></dc:creator><dc:date>2026</dc:date></cc:Work></rdf:RDF></metadata><g transform="translate(21.305 0) scale(1.37525)">
  <sodipodi:namedview
     id="namedview1162"
     pagecolor="#ffffff"
     bordercolor="#666666"
     borderopacity="1.0"
     inkscape:pageshadow="2"
     inkscape:pageopacity="0.0"
     inkscape:pagecheckerboard="0"
     inkscape:document-units="mm"
     showgrid="false"
     fit-margin-top="5"
     fit-margin-left="5"
     fit-margin-right="5"
     fit-margin-bottom="5"
     inkscape:object-paths="false"
     inkscape:zoom="1.6759977"
     inkscape:cx="196.89764"
     inkscape:cy="194.21268"
     inkscape:window-width="1920"
     inkscape:window-height="1015"
     inkscape:window-x="0"
     inkscape:window-y="0"
     inkscape:window-maximized="1"
     inkscape:current-layer="layer1" />
  <defs
     id="defs1157" />
  <g
     inkscape:label="Layer 1"
     inkscape:groupmode="layer"
     id="layer1"
     transform="translate(-67.128598,-90.617093)">
    <g
       id="g863">
      <path
         style="fill:#9d7246;fill-opacity:1"
         d="m 80.133401,153.58091 -3.347164,2.83501 -0.740576,5.49218 13.326792,7.66962 -4.796399,3.41217 2.28175,3.31797 3.580297,1.38337 7.106429,-4.39469 9.64905,3.75924 2.40993,-3.09926 1.35551,-2.77447 0.0281,-1.26794 -1.26816,-1.0222 -3.16482,-1.63784 4.41735,-2.434 12.21143,-5.0681 -0.21328,-2.13495 -2.0328,-2.71668 -2.81811,-1.58461 -18.825886,10.18048 -19.159393,-9.9153"
         id="path940" stroke="#000000" stroke-width="1.09071" stroke-linejoin="round" stroke-linecap="round" paint-order="stroke fill"/>
      <path
         style="fill:#ff9900;fill-opacity:1"
         d="m 81.552887,112.01182 c 0,0 2.147444,7.95188 4.240833,10.96329 2.093388,3.01141 3.043299,10.24251 3.043299,10.24251 0,0 5.164883,-12.88625 3.409482,-18.78504 -1.755402,-5.8988 0.154405,-14.41168 4.904561,-17.815581 0,0 0.02685,10.147671 4.761058,15.425641 4.73422,5.27797 9.24473,12.87576 7.57463,23.05855 0,0 1.32151,-7.91229 3.54178,-11.20798 2.22027,-3.29567 0.98329,-9.68043 -0.0184,-10.66398 0,0 3.87224,5.33704 6.19738,6.55959 0,0 1.9887,2.63502 2.92788,4.92314 0.93919,2.28813 1.39069,4.24611 0.30567,7.50373 -1.08502,3.25761 -1.90954,4.69723 -2.00319,6.74945 -0.0936,2.05222 -2.31562,7.44828 -3.33253,8.9157 -1.01691,1.46743 -7.746,7.31105 -16.70196,7.4554 -8.955957,0.14436 -10.331923,-1.30691 -11.150515,-1.61051 -0.818591,-0.30359 -12.242951,-8.20971 -13.670606,-11.07274 -1.427654,-2.86302 -3.570768,-10.12944 -1.735907,-14.51608 1.834863,-4.38663 3.550707,-5.34788 4.336854,-6.21039 0.786145,-0.86251 4.290047,-5.22521 3.369661,-9.9147 z"
         id="path1289" stroke="#000000" stroke-width="1.09071" stroke-linejoin="round" stroke-linecap="round" paint-order="stroke fill"/>
      <path
         style="fill:#d01424;fill-opacity:1"
         d="m 80.416272,131.66922 c 0,0 -0.355045,6.68884 3.460341,9.52406 3.815389,2.83522 9.304284,6.31971 11.0469,10.6798 0,0 5.321047,1.44025 7.872127,-0.0605 2.55108,-1.5008 2.71698,-4.75405 2.65778,-5.29226 -0.0592,-0.53821 0.86934,-3.07541 1.61883,-3.92289 0,0 -11.748594,2.80379 -10.498211,-9.08714 0,0 -2.471848,6.47489 -5.777286,7.42345 -3.305436,0.94856 -10.491563,-6.90887 -10.380481,-9.26448 z"
         id="path1291" stroke="#000000" stroke-width="1.09071" stroke-linejoin="round" stroke-linecap="round" paint-order="stroke fill"/>
      <path
         style="fill:none;stroke:#000000;stroke-width:1.09071;stroke-linecap:round;stroke-linejoin:round;stroke-miterlimit:4;stroke-dasharray:none;stroke-opacity:1"
         d="m 80.133401,153.58091 29.585529,15.311 c 0,0 4.30326,0.32492 -2.52535,8.16387 0,0 -18.564294,-6.35249 -31.147919,-15.14768 0,0 -1.688232,-5.65988 4.08774,-8.32719 z"
         id="path1293" />
      <path
         style="fill:none;stroke:#000000;stroke-width:1.09071;stroke-linecap:round;stroke-linejoin:round;stroke-miterlimit:4;stroke-dasharray:none;stroke-opacity:1"
         d="m 80.133401,153.58091 c 0,0 3.669239,3.22958 2.168924,6.05862 -1.500315,2.82906 -6.256664,2.26857 -6.256664,2.26857"
         id="path1295" />
      <path
         style="fill:none;stroke:#000000;stroke-width:1.09071;stroke-linecap:round;stroke-linejoin:round;stroke-miterlimit:4;stroke-dasharray:none;stroke-opacity:1"
         d="m 83.468377,159.88583 c 0,0 6.555832,1.65755 9.079672,4.41036"
         id="path1297" />
      <path
         style="fill:none;stroke:#000000;stroke-width:1.09071;stroke-linecap:round;stroke-linejoin:round;stroke-miterlimit:4;stroke-dasharray:none;stroke-opacity:1"
         d="m 98.992003,169.14068 c 0,0 3.952717,0.23957 5.938447,2.88711"
         id="path1299" />
      <path
         style="fill:none;stroke:#000000;stroke-width:1.09071;stroke-linecap:round;stroke-linejoin:round;stroke-miterlimit:4;stroke-dasharray:none;stroke-opacity:1"
         d="m 88.267548,165.94105 c 0,0 6.159634,1.74308 10.014693,5.449"
         id="path1301" />
      <path
         style="fill:none;stroke:#000000;stroke-width:1.09071;stroke-linecap:round;stroke-linejoin:round;stroke-miterlimit:4;stroke-dasharray:none;stroke-opacity:1"
         d="m 99.292794,163.49621 18.825886,-10.18047 c 0,0 5.61334,1.91125 5.06421,6.43623 0,0 -10.18004,3.46971 -16.62878,7.5021"
         id="path1303" />
      <path
         style="fill:none;stroke:#000000;stroke-width:1.09071;stroke-linecap:round;stroke-linejoin:round;stroke-miterlimit:4;stroke-dasharray:none;stroke-opacity:1"
         d="m 118.11868,153.31574 c 0,0 -3.15826,5.18324 5.06421,6.43623"
         id="path1305" />
      <path
         style="fill:none;stroke:#000000;stroke-width:1.09071;stroke-linecap:round;stroke-linejoin:round;stroke-miterlimit:4;stroke-dasharray:none;stroke-opacity:1"
         d="m 89.372453,169.57772 -4.796399,3.41217 c 0,0 1.412751,4.48364 5.862047,4.70134 0,0 3.829713,-3.48403 7.10643,-4.39469"
         id="path1307" />
      <path
         style="fill:none;stroke:#000000;stroke-width:1.09071;stroke-linecap:round;stroke-linejoin:round;stroke-miterlimit:4;stroke-dasharray:none;stroke-opacity:1"
         d="m 88.729031,174.84899 c 0,0 0.865329,-1.11159 2.280565,-1.43324"
         id="path1309" />
      <path
         style="fill:none;stroke:#000000;stroke-width:1.09071;stroke-linecap:round;stroke-linejoin:round;stroke-miterlimit:4;stroke-dasharray:none;stroke-opacity:1"
         d="m 103.53217,163.76656 c 0,0 0.75238,-0.90231 1.73944,-1.28885"
         id="path1311" />
      <path
         style="fill:none;stroke:#000000;stroke-width:1.09071;stroke-linecap:round;stroke-linejoin:round;stroke-miterlimit:4;stroke-dasharray:none;stroke-opacity:1"
         d="m 108.43767,161.79461 c 1.77704,-0.75716 1.58468,-0.38062 1.58468,-0.38062"
         id="path1313" />
      <path
         style="fill:none;stroke:#000000;stroke-width:1.09071;stroke-linecap:round;stroke-linejoin:round;stroke-miterlimit:4;stroke-dasharray:none;stroke-opacity:1"
         d="m 114.16883,158.57143 0.55559,-0.47619"
         id="path1315" />
      <path
         style="fill:none;stroke:#f8e712;stroke-width:1.09071;stroke-linecap:round;stroke-linejoin:miter;stroke-miterlimit:4;stroke-dasharray:none;stroke-opacity:1"
         d="m 116.57481,120.98055 c 0.0841,0.21534 5.25057,4.5933 2.65927,11.68896 -2.80269,7.67454 -1.63778,6.4645 -2.5031,9.35917 -0.8653,2.89468 -3.10171,5.48789 -3.10171,5.48789"
         id="path12698"
         sodipodi:nodetypes="cssc" />
      <path
         style="fill:none;stroke:#f8e712;stroke-width:1.09071;stroke-linecap:round;stroke-linejoin:miter;stroke-miterlimit:4;stroke-dasharray:none;stroke-opacity:1"
         d="m 116.01107,124.46434 c -0.25317,-0.28141 -3.05854,4.47283 -4.09186,11.66348"
         id="path14656"
         sodipodi:nodetypes="cc" />
      <path
         style="fill:none;stroke:#f8e712;stroke-width:1.09071;stroke-linecap:round;stroke-linejoin:miter;stroke-miterlimit:4;stroke-dasharray:none;stroke-opacity:1"
         d="m 107.04693,134.77453 c 0,0 1.27695,-12.15569 -5.15165,-18.76138 -6.428602,-6.60571 -5.407297,-9.28966 -5.407297,-9.28966"
         id="path15031" />
      <path
         style="fill:none;stroke:#f8e712;stroke-width:1.09071;stroke-linecap:round;stroke-linejoin:miter;stroke-miterlimit:4;stroke-dasharray:none;stroke-opacity:1"
         d="m 95.343141,102.64745 c -0.08087,-0.2636 -2.282083,6.1752 -0.475989,12.26169 1.432585,4.82777 -2.525746,17.22035 -2.525746,17.22035"
         id="path15099"
         sodipodi:nodetypes="csc" />
      <path
         style="fill:none;stroke:#f8e712;stroke-width:1.09071;stroke-linecap:round;stroke-linejoin:miter;stroke-miterlimit:4;stroke-dasharray:none;stroke-opacity:1"
         d="m 81.895488,121.02096 c 0,0 0.826707,2.15433 2.265048,4.4662 1.438343,2.31188 2.184234,7.88691 2.184234,7.88691"
         id="path15489" />
      <path
         style="fill:none;stroke:#f8e712;stroke-width:1.09071;stroke-linecap:round;stroke-linejoin:miter;stroke-miterlimit:4;stroke-dasharray:none;stroke-opacity:1"
         d="m 80.41264,123.7381 c 0,0 -6.578359,4.15822 -3.820373,14.81031"
         id="path15703" />
    </g>
  </g>
</g></svg>