<svg xmlns="http://www.w3.org/2000/svg" width="32" height="32" viewBox="0 0 32 32" fill="none" data-copyright="© 2026 Sensory App House"><!--SAH-COPYRIGHT © 2026 Sensory App House. All rights reserved.--><metadata id="sah-copyright"><rdf:RDF xmlns:rdf="http://www.w3.org/1999/02/22-rdf-syntax-ns#" xmlns:dc="http://purl.org/dc/elements/1.1/" xmlns:cc="http://creativecommons.org/ns#"><cc:Work rdf:about=""><dc:rights><cc:Agent><dc:title>© 2026 Sensory App House. All rights reserved.</dc:title></cc:Agent></dc:rights><dc:creator><cc:Agent><dc:title>Sensory App House (PiCom)</dc:title></cc:Agent></dc:creator><dc:date>2026</dc:date></cc:Work></rdf:RDF></metadata>
<path d="M2 6C2 3.79086 3.79086 2 6 2H26C28.2091 2 30 3.79086 30 6V26C30 28.2091 28.2091 30 26 30H6C3.79086 30 2 28.2091 2 26V6Z" fill="#279a30" stroke="#000000" stroke-width="0.5" stroke-linejoin="round" stroke-linecap="round" paint-order="stroke fill" />
<path d="M17.209 8.00834L16.5047 5.61578C16.3639 5.13738 15.6863 5.13738 15.5454 5.61578L14.8411 8.00834C13.8815 11.2683 11.332 13.8177 8.07209 14.7774L5.67954 15.4817C5.20114 15.6225 5.20114 16.3002 5.67954 16.441L8.07209 17.1453C11.332 18.1049 13.8815 20.6544 14.8411 23.9143L15.5454 26.3069C15.6863 26.7853 16.3639 26.7853 16.5047 26.3069L17.209 23.9143C18.1687 20.6544 20.7182 18.1049 23.9781 17.1453L26.3706 16.441C26.849 16.3002 26.849 15.6225 26.3706 15.4817L23.9781 14.7774C20.7182 13.8177 18.1687 11.2683 17.209 8.00834Z" fill="white" stroke="#000000" stroke-width="0.5" stroke-linejoin="round" stroke-linecap="round" paint-order="stroke fill" />
</svg>