<svg xmlns="http://www.w3.org/2000/svg" viewBox="0 0 290 240" width="290" height="240" data-copyright="© 2026 Sensory App House"><g transform="translate(0.000,11.424) scale(0.9524)"><!--SAH-COPYRIGHT © 2026 Sensory App House. All rights reserved.--><metadata id="sah-copyright"><rdf:RDF xmlns:rdf="http://www.w3.org/1999/02/22-rdf-syntax-ns#" xmlns:dc="http://purl.org/dc/elements/1.1/" xmlns:cc="http://creativecommons.org/ns#"><cc:Work rdf:about=""><dc:rights><cc:Agent><dc:title>© 2026 Sensory App House. All rights reserved.</dc:title></cc:Agent></dc:rights><dc:creator><cc:Agent><dc:title>Sensory App House (PiCom)</dc:title></cc:Agent></dc:creator><dc:date>2026</dc:date></cc:Work></rdf:RDF></metadata>
  <!-- floor -->
  <rect x="10" y="220" width="270" height="6" fill="#eed5b6" stroke="#000000" stroke-width="2"/>

  <!-- BRIDESMAID 1 (left, full) -->
  <path d="M45,108 L85,108 L96,210 L34,210 Z" fill="#7c3fac" stroke="#000000" stroke-width="3" stroke-linejoin="round"/>
  <rect x="34" y="145" width="62" height="6" fill="#f266aa" stroke="#000000" stroke-width="2"/>
  <ellipse cx="52" cy="213" rx="7" ry="4" fill="#000000" stroke="#000000" stroke-width="2"/>
  <ellipse cx="78" cy="213" rx="7" ry="4" fill="#000000" stroke="#000000" stroke-width="2"/>
  <rect x="35" y="110" width="11" height="50" fill="#7c3fac" stroke="#000000" stroke-width="3" transform="rotate(10 40 135)"/>
  <rect x="84" y="110" width="11" height="50" fill="#7c3fac" stroke="#000000" stroke-width="3" transform="rotate(-10 89 135)"/>
  <!-- bouquet -->
  <circle cx="65" cy="170" r="13" fill="#f266aa" stroke="#000000" stroke-width="3"/>
  <circle cx="60" cy="167" r="5" fill="#d01424" stroke="#000000" stroke-width="2"/>
  <circle cx="70" cy="167" r="5" fill="#d01424" stroke="#000000" stroke-width="2"/>
  <circle cx="65" cy="174" r="4" fill="#f4a4b2" stroke="#000000" stroke-width="2"/>
  <!-- head -->
  <circle cx="65" cy="85" r="20" fill="#eed5b6" stroke="#000000" stroke-width="3"/>
  <path d="M45,85 C45,65 85,65 85,85 C85,75 77,70 65,70 C53,70 45,75 45,85 Z" fill="#5e1f0a" stroke="#000000" stroke-width="3" stroke-linejoin="round"/>
  <circle cx="59" cy="88" r="1.8" fill="#000000"/>
  <circle cx="71" cy="88" r="1.8" fill="#000000"/>
  <path d="M60,95 Q65,98 70,95" fill="none" stroke="#000000" stroke-width="2" stroke-linecap="round"/>

  <!-- BRIDESMAID 2 (center, full) -->
  <path d="M125,108 L165,108 L176,210 L114,210 Z" fill="#7c3fac" stroke="#000000" stroke-width="3" stroke-linejoin="round"/>
  <rect x="114" y="145" width="62" height="6" fill="#f266aa" stroke="#000000" stroke-width="2"/>
  <ellipse cx="132" cy="213" rx="7" ry="4" fill="#000000" stroke="#000000" stroke-width="2"/>
  <ellipse cx="158" cy="213" rx="7" ry="4" fill="#000000" stroke="#000000" stroke-width="2"/>
  <rect x="115" y="110" width="11" height="50" fill="#7c3fac" stroke="#000000" stroke-width="3" transform="rotate(10 120 135)"/>
  <rect x="164" y="110" width="11" height="50" fill="#7c3fac" stroke="#000000" stroke-width="3" transform="rotate(-10 169 135)"/>
  <circle cx="145" cy="170" r="13" fill="#f266aa" stroke="#000000" stroke-width="3"/>
  <circle cx="140" cy="167" r="5" fill="#d01424" stroke="#000000" stroke-width="2"/>
  <circle cx="150" cy="167" r="5" fill="#d01424" stroke="#000000" stroke-width="2"/>
  <circle cx="145" cy="174" r="4" fill="#f4a4b2" stroke="#000000" stroke-width="2"/>
  <circle cx="145" cy="85" r="20" fill="#eed5b6" stroke="#000000" stroke-width="3"/>
  <path d="M125,85 C125,65 165,65 165,85 C165,75 157,70 145,70 C133,70 125,75 125,85 Z" fill="#7d5e23" stroke="#000000" stroke-width="3" stroke-linejoin="round"/>
  <circle cx="139" cy="88" r="1.8" fill="#000000"/>
  <circle cx="151" cy="88" r="1.8" fill="#000000"/>
  <path d="M140,95 Q145,98 150,95" fill="none" stroke="#000000" stroke-width="2" stroke-linecap="round"/>

  <!-- BRIDESMAID 3 (right, full) -->
  <path d="M205,108 L245,108 L256,210 L194,210 Z" fill="#7c3fac" stroke="#000000" stroke-width="3" stroke-linejoin="round"/>
  <rect x="194" y="145" width="62" height="6" fill="#f266aa" stroke="#000000" stroke-width="2"/>
  <ellipse cx="212" cy="213" rx="7" ry="4" fill="#000000" stroke="#000000" stroke-width="2"/>
  <ellipse cx="238" cy="213" rx="7" ry="4" fill="#000000" stroke="#000000" stroke-width="2"/>
  <rect x="195" y="110" width="11" height="50" fill="#7c3fac" stroke="#000000" stroke-width="3" transform="rotate(10 200 135)"/>
  <rect x="244" y="110" width="11" height="50" fill="#7c3fac" stroke="#000000" stroke-width="3" transform="rotate(-10 249 135)"/>
  <circle cx="225" cy="170" r="13" fill="#f266aa" stroke="#000000" stroke-width="3"/>
  <circle cx="220" cy="167" r="5" fill="#d01424" stroke="#000000" stroke-width="2"/>
  <circle cx="230" cy="167" r="5" fill="#d01424" stroke="#000000" stroke-width="2"/>
  <circle cx="225" cy="174" r="4" fill="#f4a4b2" stroke="#000000" stroke-width="2"/>
  <circle cx="225" cy="85" r="20" fill="#eed5b6" stroke="#000000" stroke-width="3"/>
  <path d="M205,85 C205,65 245,65 245,85 C245,75 237,70 225,70 C213,70 205,75 205,85 Z" fill="#4d4d4d" stroke="#000000" stroke-width="3" stroke-linejoin="round"/>
  <circle cx="219" cy="88" r="1.8" fill="#000000"/>
  <circle cx="231" cy="88" r="1.8" fill="#000000"/>
  <path d="M220,95 Q225,98 230,95" fill="none" stroke="#000000" stroke-width="2" stroke-linecap="round"/>
</g><g transform="translate(0,0) scale(0.5664,0.4688) translate(360 8) scale(0.2812)"><defs><radialGradient id="pcxpl322" cx="40%" cy="35%" r="65%"><stop offset="0%" stop-color="#7ed957"/><stop offset="100%" stop-color="#3aa324"/></radialGradient></defs><path d="M 256.0,56.0 L 281.0,212.7 L 429.2,156.0 L 306.0,256.0 L 429.2,356.0 L 281.0,299.3 L 256.0,456.0 L 231.0,299.3 L 82.8,356.0 L 206.0,256.0 L 82.8,156.0 L 231.0,212.7 Z" fill="url(#pcxpl322)" stroke="#1a1a1a" stroke-width="14" stroke-linejoin="round"/></g></svg>
