<svg xmlns="http://www.w3.org/2000/svg" viewBox="0 0 290 240" width="290" height="240" data-copyright="© 2026 Sensory App House"><!--SAH-COPYRIGHT © 2026 Sensory App House. All rights reserved.--><metadata id="sah-copyright"><rdf:RDF xmlns:rdf="http://www.w3.org/1999/02/22-rdf-syntax-ns#" xmlns:dc="http://purl.org/dc/elements/1.1/" xmlns:cc="http://creativecommons.org/ns#"><cc:Work rdf:about=""><dc:rights><cc:Agent><dc:title>© 2026 Sensory App House. All rights reserved.</dc:title></cc:Agent></dc:rights><dc:creator><cc:Agent><dc:title>Sensory App House (PiCom)</dc:title></cc:Agent></dc:creator><dc:date>2026</dc:date></cc:Work></rdf:RDF></metadata>
  <!-- Stem -->
  <path d="M138 215 Q140 170 140 150 Q145 170 152 215 Z" fill="#529929" stroke="#000000" stroke-width="5" stroke-linecap="round" stroke-linejoin="round"/>
  <!-- Left leaf -->
  <path d="M140 188 C118 180 104 160 112 146 C120 140 135 152 140 188Z" fill="#529929" stroke="#000000" stroke-width="4" stroke-linecap="round" stroke-linejoin="round"/>
  <!-- Right leaf -->
  <path d="M144 170 C166 162 180 144 172 130 C164 124 149 136 144 170Z" fill="#529929" stroke="#000000" stroke-width="4" stroke-linecap="round" stroke-linejoin="round"/>
  <!-- Petals — 12 narrow white petals radiating around centre -->
  <!-- 12:00 -->
  <ellipse cx="145" cy="68" rx="7" ry="24" fill="#ffffff" stroke="#000000" stroke-width="4" stroke-linecap="round" stroke-linejoin="round"/>
  <!-- 1:00 -->
  <ellipse cx="145" cy="68" rx="7" ry="24" fill="#ffffff" stroke="#000000" stroke-width="4" stroke-linecap="round" stroke-linejoin="round" transform="rotate(30 145 98)"/>
  <!-- 2:00 -->
  <ellipse cx="145" cy="68" rx="7" ry="24" fill="#ffffff" stroke="#000000" stroke-width="4" stroke-linecap="round" stroke-linejoin="round" transform="rotate(60 145 98)"/>
  <!-- 3:00 -->
  <ellipse cx="145" cy="68" rx="7" ry="24" fill="#ffffff" stroke="#000000" stroke-width="4" stroke-linecap="round" stroke-linejoin="round" transform="rotate(90 145 98)"/>
  <!-- 4:00 -->
  <ellipse cx="145" cy="68" rx="7" ry="24" fill="#ffffff" stroke="#000000" stroke-width="4" stroke-linecap="round" stroke-linejoin="round" transform="rotate(120 145 98)"/>
  <!-- 5:00 -->
  <ellipse cx="145" cy="68" rx="7" ry="24" fill="#ffffff" stroke="#000000" stroke-width="4" stroke-linecap="round" stroke-linejoin="round" transform="rotate(150 145 98)"/>
  <!-- 6:00 -->
  <ellipse cx="145" cy="68" rx="7" ry="24" fill="#ffffff" stroke="#000000" stroke-width="4" stroke-linecap="round" stroke-linejoin="round" transform="rotate(180 145 98)"/>
  <!-- 7:00 -->
  <ellipse cx="145" cy="68" rx="7" ry="24" fill="#ffffff" stroke="#000000" stroke-width="4" stroke-linecap="round" stroke-linejoin="round" transform="rotate(210 145 98)"/>
  <!-- 8:00 -->
  <ellipse cx="145" cy="68" rx="7" ry="24" fill="#ffffff" stroke="#000000" stroke-width="4" stroke-linecap="round" stroke-linejoin="round" transform="rotate(240 145 98)"/>
  <!-- 9:00 -->
  <ellipse cx="145" cy="68" rx="7" ry="24" fill="#ffffff" stroke="#000000" stroke-width="4" stroke-linecap="round" stroke-linejoin="round" transform="rotate(270 145 98)"/>
  <!-- 10:00 -->
  <ellipse cx="145" cy="68" rx="7" ry="24" fill="#ffffff" stroke="#000000" stroke-width="4" stroke-linecap="round" stroke-linejoin="round" transform="rotate(300 145 98)"/>
  <!-- 11:00 -->
  <ellipse cx="145" cy="68" rx="7" ry="24" fill="#ffffff" stroke="#000000" stroke-width="4" stroke-linecap="round" stroke-linejoin="round" transform="rotate(330 145 98)"/>
  <!-- Yellow centre disc -->
  <circle cx="145" cy="98" r="22" fill="#f7de58" stroke="#000000" stroke-width="5" stroke-linecap="round" stroke-linejoin="round"/>
  <!-- Centre detail dots -->
  <circle cx="138" cy="92" r="4" fill="#f2e40d" stroke="#000000" stroke-width="2" stroke-linecap="round" stroke-linejoin="round"/>
  <circle cx="152" cy="92" r="4" fill="#f2e40d" stroke="#000000" stroke-width="2" stroke-linecap="round" stroke-linejoin="round"/>
  <circle cx="145" cy="105" r="4" fill="#f2e40d" stroke="#000000" stroke-width="2" stroke-linecap="round" stroke-linejoin="round"/>
<g transform="translate(0,0) scale(0.5664,0.4688) translate(360 8) scale(0.2812)"><defs><radialGradient id="pcxpl724" cx="40%" cy="35%" r="65%"><stop offset="0%" stop-color="#7ed957"/><stop offset="100%" stop-color="#3aa324"/></radialGradient></defs><path d="M 256.0,56.0 L 281.0,212.7 L 429.2,156.0 L 306.0,256.0 L 429.2,356.0 L 281.0,299.3 L 256.0,456.0 L 231.0,299.3 L 82.8,356.0 L 206.0,256.0 L 82.8,156.0 L 231.0,212.7 Z" fill="url(#pcxpl724)" stroke="#1a1a1a" stroke-width="14" stroke-linejoin="round"/></g></svg>
