<svg xmlns="http://www.w3.org/2000/svg" viewBox="0 0 290 240" width="290" height="240" data-copyright="© 2026 Sensory App House"><!--SAH-COPYRIGHT © 2026 Sensory App House. All rights reserved.--><metadata id="sah-copyright"><rdf:RDF xmlns:rdf="http://www.w3.org/1999/02/22-rdf-syntax-ns#" xmlns:dc="http://purl.org/dc/elements/1.1/" xmlns:cc="http://creativecommons.org/ns#"><cc:Work rdf:about=""><dc:rights><cc:Agent><dc:title>© 2026 Sensory App House. All rights reserved.</dc:title></cc:Agent></dc:rights><dc:creator><cc:Agent><dc:title>Sensory App House (PiCom)</dc:title></cc:Agent></dc:creator><dc:date>2026</dc:date></cc:Work></rdf:RDF></metadata>
  
  
  <ellipse cx="145" cy="62" rx="32" ry="30" fill="#ffffff" stroke="#000000" stroke-width="5" stroke-linejoin="round"/>
  
  <rect x="122" y="82" width="46" height="18" rx="5" fill="#ffffff" stroke="#000000" stroke-width="4" stroke-linejoin="round"/>
  
  <rect x="126" y="85" width="8" height="11" rx="2" fill="#4d4d4d"/>
  <rect x="137" y="85" width="8" height="11" rx="2" fill="#4d4d4d"/>
  <rect x="148" y="85" width="8" height="11" rx="2" fill="#4d4d4d"/>
  <rect x="159" y="85" width="8" height="11" rx="2" fill="#4d4d4d"/>
  
  <ellipse cx="132" cy="58" rx="10" ry="10" fill="#4d4d4d" stroke="#000000" stroke-width="3"/>
  <ellipse cx="158" cy="58" rx="10" ry="10" fill="#4d4d4d" stroke="#000000" stroke-width="3"/>
  
  <path d="M141 68 L145 63 L149 68 Q145 72 141 68 Z" fill="#4d4d4d"/>
  
  <rect x="139" y="100" width="12" height="8" rx="3" fill="#ffffff" stroke="#000000" stroke-width="3"/>
  <rect x="139" y="112" width="12" height="8" rx="3" fill="#ffffff" stroke="#000000" stroke-width="3"/>
  <rect x="139" y="124" width="12" height="8" rx="3" fill="#ffffff" stroke="#000000" stroke-width="3"/>
  <rect x="139" y="136" width="12" height="8" rx="3" fill="#ffffff" stroke="#000000" stroke-width="3"/>
  <rect x="139" y="148" width="12" height="8" rx="3" fill="#ffffff" stroke="#000000" stroke-width="3"/>
  
  <path d="M145 103 Q118 108 115 122 Q118 132 130 128 Q138 124 141 118" fill="none" stroke="#000000" stroke-width="5" stroke-linecap="round"/>
  <path d="M145 112 Q115 118 113 130 Q116 140 128 136 Q138 132 141 126" fill="none" stroke="#000000" stroke-width="5" stroke-linecap="round"/>
  <path d="M145 103 Q172 108 175 122 Q172 132 160 128 Q152 124 149 118" fill="none" stroke="#000000" stroke-width="5" stroke-linecap="round"/>
  <path d="M145 112 Q175 118 177 130 Q174 140 162 136 Q152 132 149 126" fill="none" stroke="#000000" stroke-width="5" stroke-linecap="round"/>
  
  <path d="M120 156 Q120 170 145 172 Q170 170 170 156 Q160 150 145 152 Q130 150 120 156 Z" fill="#ffffff" stroke="#000000" stroke-width="4" stroke-linejoin="round"/>
  
  <rect x="90" y="100" width="12" height="38" rx="5" fill="#ffffff" stroke="#000000" stroke-width="4" stroke-linejoin="round" transform="rotate(-15 96 119)"/>
  <rect x="78" y="132" width="12" height="36" rx="5" fill="#ffffff" stroke="#000000" stroke-width="4" stroke-linejoin="round" transform="rotate(10 84 150)"/>
  
  <rect x="188" y="100" width="12" height="38" rx="5" fill="#ffffff" stroke="#000000" stroke-width="4" stroke-linejoin="round" transform="rotate(15 194 119)"/>
  <rect x="200" y="132" width="12" height="36" rx="5" fill="#ffffff" stroke="#000000" stroke-width="4" stroke-linejoin="round" transform="rotate(-10 206 150)"/>
  
  <rect x="122" y="172" width="14" height="40" rx="5" fill="#ffffff" stroke="#000000" stroke-width="4" stroke-linejoin="round"/>
  <rect x="118" y="208" width="14" height="32" rx="5" fill="#ffffff" stroke="#000000" stroke-width="4" stroke-linejoin="round"/>
  
  <rect x="154" y="172" width="14" height="40" rx="5" fill="#ffffff" stroke="#000000" stroke-width="4" stroke-linejoin="round"/>
  <rect x="158" y="208" width="14" height="32" rx="5" fill="#ffffff" stroke="#000000" stroke-width="4" stroke-linejoin="round"/>
<g transform="translate(0,0) scale(0.5664,0.4688) translate(360 8) scale(0.2812)"><defs><radialGradient id="pcxpl2573" cx="40%" cy="35%" r="65%"><stop offset="0%" stop-color="#7ed957"/><stop offset="100%" stop-color="#3aa324"/></radialGradient></defs><path d="M 256.0,56.0 L 281.0,212.7 L 429.2,156.0 L 306.0,256.0 L 429.2,356.0 L 281.0,299.3 L 256.0,456.0 L 231.0,299.3 L 82.8,356.0 L 206.0,256.0 L 82.8,156.0 L 231.0,212.7 Z" fill="url(#pcxpl2573)" stroke="#1a1a1a" stroke-width="14" stroke-linejoin="round"/></g></svg>
